<svg viewBox="0 0 395.52 66.49217854876741" height="66.49217854876741" width="395.52"><g><svg viewBox="0 0 497.88701231987255 83.70143638826184" height="66.49217854876741" width="395.52"><g transform="matrix(1,0,0,1,102.36701231987256,25.86495876168977)"><svg viewBox="0 0 395.52 31.971518864882295" height="31.971518864882295" width="395.52"><g id="textblocktransform"><svg viewBox="0 0 395.52 31.971518864882295" height="31.971518864882295" width="395.52" id="textblock"><g><svg viewBox="0 0 395.52 31.971518864882295" height="31.971518864882295" width="395.52"><g transform="matrix(1,0,0,1,0,0)"><svg width="395.52" viewBox="4.5 -37 465.1099853515625 37.599998474121094" height="31.971518864882295" data-palette-color="#000000"><path d="M29.35-1.5L24.9 0.6 20.55-8.9Q18.9-12.45 16.4-13.95 13.9-15.45 10-15.45L10-15.45 9.25-15.45 9.25 0 4.5 0 4.5-34.9Q7.15-35.15 9.58-35.27 12-35.4 14.75-35.4L14.75-35.4Q21.15-35.4 24.38-32.8 27.6-30.2 27.6-26.1L27.6-26.1Q27.6-22.45 25.43-20.23 23.25-18 19.15-16.9L19.15-16.9Q20.5-16.3 21.55-15.48 22.6-14.65 23.58-13.28 24.55-11.9 25.55-9.7L25.55-9.7 29.35-1.5ZM9.25-31.2L9.25-19.45 14.75-19.45Q18.35-19.45 20.6-21.05 22.85-22.65 22.85-25.65L22.85-25.65Q22.85-28.15 20.75-29.78 18.65-31.4 14.75-31.4L14.75-31.4Q13.05-31.4 11.7-31.35 10.35-31.3 9.25-31.2L9.25-31.2ZM45.25 0.6L45.25 0.6Q39.65 0.6 36.37-2.98 33.1-6.55 33.1-13L33.1-13Q33.1-16.9 34.57-19.98 36.05-23.05 38.7-24.83 41.35-26.6 44.85-26.6L44.85-26.6Q48.6-26.6 51.07-24.98 53.55-23.35 54.8-20.6 56.05-17.85 56.05-14.55L56.05-14.55Q56.05-12.8 55.9-11.15L55.9-11.15 37.7-11.15Q38.15-7.5 40.25-5.45 42.35-3.4 45.8-3.4L45.8-3.4Q48.05-3.4 49.85-3.88 51.65-4.35 53.3-5.1L53.3-5.1 54.35-1.25Q52.55-0.45 50.3 0.08 48.05 0.6 45.25 0.6ZM37.65-14.8L37.65-14.8 51.9-14.8Q51.9-18.6 50-20.65 48.1-22.7 44.75-22.7L44.75-22.7Q41.85-22.7 39.95-20.68 38.05-18.65 37.65-14.8ZM69.05 0.6L69.05 0.6Q66.09 0.6 63.72-0.15 61.34-0.9 59.8-2.1L59.8-2.1 61.7-5.85Q63-4.75 64.97-4.03 66.95-3.3 69.2-3.3L69.2-3.3Q72-3.3 73.42-4.23 74.84-5.15 74.84-6.6L74.84-6.6Q74.84-7.65 74.32-8.45 73.8-9.25 72.4-10.03 71-10.8 68.34-11.7L68.34-11.7Q64.7-12.95 62.87-14.68 61.05-16.4 61.05-19.45L61.05-19.45Q61.05-22.45 63.67-24.53 66.3-26.6 70.95-26.6L70.95-26.6Q73.45-26.6 75.4-26.08 77.34-25.55 78.9-24.75L78.9-24.75 77.65-21.05Q76.3-21.85 74.57-22.35 72.84-22.85 70.75-22.85L70.75-22.85Q68.15-22.85 66.8-21.8 65.45-20.75 65.45-19.5L65.45-19.5Q65.45-18.3 66.5-17.45 67.55-16.6 70.59-15.6L70.59-15.6Q75.55-13.95 77.5-11.95 79.45-9.95 79.45-6.95L79.45-6.95Q79.45-3.45 76.62-1.43 73.8 0.6 69.05 0.6ZM95.84 0.6L95.84 0.6Q90.24 0.6 86.97-2.98 83.69-6.55 83.69-13L83.69-13Q83.69-16.9 85.17-19.98 86.64-23.05 89.29-24.83 91.94-26.6 95.44-26.6L95.44-26.6Q99.19-26.6 101.67-24.98 104.14-23.35 105.39-20.6 106.64-17.85 106.64-14.55L106.64-14.55Q106.64-12.8 106.49-11.15L106.49-11.15 88.29-11.15Q88.74-7.5 90.84-5.45 92.94-3.4 96.39-3.4L96.39-3.4Q98.64-3.4 100.44-3.88 102.24-4.35 103.89-5.1L103.89-5.1 104.94-1.25Q103.14-0.45 100.89 0.08 98.64 0.6 95.84 0.6ZM88.24-14.8L88.24-14.8 102.49-14.8Q102.49-18.6 100.59-20.65 98.69-22.7 95.34-22.7L95.34-22.7Q92.44-22.7 90.54-20.68 88.64-18.65 88.24-14.8ZM122.59 0.6L122.59 0.6Q119.34 0.6 116.69-1.05 114.04-2.7 112.47-5.73 110.89-8.75 110.89-12.85L110.89-12.85Q110.89-16.75 112.47-19.85 114.04-22.95 116.82-24.78 119.59-26.6 123.19-26.6L123.19-26.6Q125.44-26.6 127.27-25.83 129.09-25.05 130.44-23.9L130.44-23.9 130.44-26 134.54-26 134.54-6.3Q134.54-4.4 135.47-3.83 136.39-3.25 137.49-3.25L137.49-3.25 136.54 0.25Q131.74 0.25 130.74-3.65L130.74-3.65Q129.59-2.05 127.62-0.73 125.64 0.6 122.59 0.6ZM123.59-3.4L123.59-3.4Q125.49-3.4 127.19-4.33 128.89-5.25 130.04-6.65L130.04-6.65 130.04-20.6Q128.69-21.55 127.07-22.13 125.44-22.7 123.64-22.7L123.64-22.7Q121.24-22.7 119.42-21.48 117.59-20.25 116.54-18.07 115.49-15.9 115.49-13L115.49-13Q115.49-10.2 116.54-8.03 117.59-5.85 119.44-4.63 121.29-3.4 123.59-3.4ZM147.99 0L143.49 0 143.49-26 147.84-26 147.84-20.35Q148.49-22 149.59-23.43 150.69-24.85 152.34-25.73 153.99-26.6 156.19-26.6L156.19-26.6Q156.94-26.6 157.69-26.53 158.44-26.45 158.94-26.3L158.94-26.3 157.59-21.65Q156.64-22.05 155.34-22.05L155.34-22.05Q153.49-22.05 151.81-21 150.14-19.95 149.06-17.75 147.99-15.55 147.99-12.15L147.99-12.15 147.99 0ZM172.44 0.6L172.44 0.6Q168.74 0.6 165.96-1.13 163.19-2.85 161.69-5.93 160.19-9 160.19-13L160.19-13Q160.19-16.75 161.71-19.85 163.24-22.95 166.09-24.78 168.94-26.6 172.78-26.6L172.78-26.6Q174.99-26.6 176.66-26.2 178.34-25.8 179.88-25.05L179.88-25.05 178.53-21.25Q177.13-21.95 175.86-22.28 174.59-22.6 173.03-22.6L173.03-22.6Q169.53-22.6 167.16-20.08 164.78-17.55 164.78-13.1L164.78-13.1Q164.78-10.4 165.78-8.2 166.78-6 168.56-4.7 170.34-3.4 172.74-3.4L172.74-3.4Q174.63-3.4 175.99-3.83 177.34-4.25 178.88-5.05L178.88-5.05 180.28-1.25Q178.74-0.4 176.81 0.1 174.88 0.6 172.44 0.6ZM190.03 0L185.53 0 185.53-37 190.03-37 190.03-21.85Q191.43-23.9 193.58-25.25 195.73-26.6 198.63-26.6L198.63-26.6Q203.03-26.6 205.21-23.95 207.38-21.3 207.38-16.95L207.38-16.95 207.38 0 202.88 0 202.88-16.45Q202.88-19.25 201.58-20.95 200.28-22.65 197.93-22.65L197.93-22.65Q195.63-22.65 193.56-21.03 191.48-19.4 190.03-17.2L190.03-17.2 190.03 0ZM225.53 0.6L225.53 0.6Q219.93 0.6 216.66-2.98 213.38-6.55 213.38-13L213.38-13Q213.38-16.9 214.85-19.98 216.33-23.05 218.98-24.83 221.63-26.6 225.13-26.6L225.13-26.6Q228.88-26.6 231.35-24.98 233.83-23.35 235.08-20.6 236.33-17.85 236.33-14.55L236.33-14.55Q236.33-12.8 236.18-11.15L236.18-11.15 217.98-11.15Q218.43-7.5 220.53-5.45 222.63-3.4 226.08-3.4L226.08-3.4Q228.33-3.4 230.13-3.88 231.93-4.35 233.58-5.1L233.58-5.1 234.63-1.25Q232.83-0.45 230.58 0.08 228.33 0.6 225.53 0.6ZM217.93-14.8L217.93-14.8 232.18-14.8Q232.18-18.6 230.28-20.65 228.38-22.7 225.03-22.7L225.03-22.7Q222.13-22.7 220.23-20.68 218.33-18.65 217.93-14.8ZM246.83 0L242.33 0 242.33-26 246.68-26 246.68-20.35Q247.33-22 248.43-23.43 249.53-24.85 251.18-25.73 252.83-26.6 255.03-26.6L255.03-26.6Q255.78-26.6 256.53-26.53 257.28-26.45 257.78-26.3L257.78-26.3 256.43-21.65Q255.48-22.05 254.18-22.05L254.18-22.05Q252.33-22.05 250.65-21 248.98-19.95 247.9-17.75 246.83-15.55 246.83-12.15L246.83-12.15 246.83 0ZM268.02 0.6L268.02 0.6Q265.07 0.6 262.7-0.15 260.32-0.9 258.77-2.1L258.77-2.1 260.67-5.85Q261.97-4.75 263.95-4.03 265.92-3.3 268.17-3.3L268.17-3.3Q270.97-3.3 272.4-4.23 273.82-5.15 273.82-6.6L273.82-6.6Q273.82-7.65 273.3-8.45 272.77-9.25 271.38-10.03 269.97-10.8 267.32-11.7L267.32-11.7Q263.67-12.95 261.85-14.68 260.02-16.4 260.02-19.45L260.02-19.45Q260.02-22.45 262.65-24.53 265.27-26.6 269.92-26.6L269.92-26.6Q272.42-26.6 274.38-26.08 276.32-25.55 277.88-24.75L277.88-24.75 276.63-21.05Q275.27-21.85 273.55-22.35 271.82-22.85 269.72-22.85L269.72-22.85Q267.13-22.85 265.77-21.8 264.42-20.75 264.42-19.5L264.42-19.5Q264.42-18.3 265.47-17.45 266.52-16.6 269.57-15.6L269.57-15.6Q274.52-13.95 276.47-11.95 278.42-9.95 278.42-6.95L278.42-6.95Q278.42-3.45 275.6-1.43 272.77 0.6 268.02 0.6ZM304.42 0L299.92 0 299.92-35 306.57-35 316.27-12.85 325.82-35 332.62-35 332.62 0 327.87 0 327.87-28.95 318.52-7.9 313.82-7.9 304.42-28.95 304.42 0ZM352.07 0.6L352.07 0.6Q348.37 0.6 345.42-1.13 342.47-2.85 340.79-5.93 339.12-9 339.12-13L339.12-13Q339.12-17.2 340.82-20.25 342.52-23.3 345.47-24.95 348.42-26.6 352.07-26.6L352.07-26.6Q355.72-26.6 358.64-24.95 361.57-23.3 363.29-20.28 365.02-17.25 365.02-13.1L365.02-13.1Q365.02-8.95 363.32-5.88 361.62-2.8 358.69-1.1 355.77 0.6 352.07 0.6ZM352.07-3.4L352.07-3.4Q356.02-3.4 358.22-6.08 360.42-8.75 360.42-13L360.42-13Q360.42-15.6 359.32-17.78 358.22-19.95 356.34-21.28 354.47-22.6 352.07-22.6L352.07-22.6Q348.12-22.6 345.92-20 343.72-17.4 343.72-13.1L343.72-13.1Q343.72-10.5 344.82-8.28 345.92-6.05 347.79-4.73 349.67-3.4 352.07-3.4ZM380.86 0.6L380.86 0.6Q377.66 0.6 375.01-1.05 372.36-2.7 370.81-5.73 369.26-8.75 369.26-12.85L369.26-12.85Q369.26-16.8 370.84-19.9 372.41-23 375.04-24.8 377.66-26.6 380.81-26.6L380.81-26.6Q383.41-26.6 385.29-25.55 387.16-24.5 388.21-23.4L388.21-23.4 388.21-37 392.71-37 392.71-6.3Q392.71-4.4 393.64-3.83 394.56-3.25 395.66-3.25L395.66-3.25 394.71 0.25Q389.96 0.25 388.91-3.55L388.91-3.55Q387.81-2 385.84-0.7 383.86 0.6 380.86 0.6ZM381.86-3.4L381.86-3.4Q383.71-3.4 385.39-4.28 387.06-5.15 388.21-6.55L388.21-6.55 388.21-19.45Q387.26-20.65 385.56-21.68 383.86-22.7 381.81-22.7L381.81-22.7Q379.41-22.7 377.61-21.4 375.81-20.1 374.84-17.93 373.86-15.75 373.86-13L373.86-13Q373.86-10.25 374.91-8.08 375.96-5.9 377.79-4.65 379.61-3.4 381.86-3.4ZM410.16 0.6L410.16 0.6Q407.91 0.6 405.91-0.35 403.91-1.3 402.66-3.43 401.41-5.55 401.41-9.1L401.41-9.1 401.41-26 405.91-26 405.91-9.7Q405.91-6.65 407.21-5.03 408.51-3.4 411.01-3.4L411.01-3.4Q413.06-3.4 414.99-4.23 416.91-5.05 418.41-6.45L418.41-6.45 418.41-26 422.91-26 422.91-6.75Q422.91-4.6 423.84-3.93 424.76-3.25 425.86-3.25L425.86-3.25 424.91 0.25Q420.26 0.25 419.16-3.45L419.16-3.45Q417.41-1.65 415.11-0.53 412.81 0.6 410.16 0.6ZM439.76 0.6L439.76 0.6Q437.46 0.6 435.61-0.28 433.76-1.15 432.68-3.1 431.61-5.05 431.61-8.15L431.61-8.15 431.61-37 436.11-37 436.11-8.6Q436.11-5.9 437.23-4.6 438.36-3.3 440.36-3.3L440.36-3.3Q441.31-3.3 442.23-3.53 443.16-3.75 443.81-4.05L443.81-4.05 444.91-0.4Q444.01 0 442.68 0.3 441.36 0.6 439.76 0.6ZM458.81 0.6L458.81 0.6Q453.21 0.6 449.93-2.98 446.66-6.55 446.66-13L446.66-13Q446.66-16.9 448.13-19.98 449.61-23.05 452.26-24.83 454.91-26.6 458.41-26.6L458.41-26.6Q462.16-26.6 464.63-24.98 467.11-23.35 468.36-20.6 469.61-17.85 469.61-14.55L469.61-14.55Q469.61-12.8 469.46-11.15L469.46-11.15 451.26-11.15Q451.71-7.5 453.81-5.45 455.91-3.4 459.36-3.4L459.36-3.4Q461.61-3.4 463.41-3.88 465.21-4.35 466.86-5.1L466.86-5.1 467.91-1.25Q466.11-0.45 463.86 0.08 461.61 0.6 458.81 0.6ZM451.21-14.8L451.21-14.8 465.46-14.8Q465.46-18.6 463.56-20.65 461.66-22.7 458.31-22.7L458.31-22.7Q455.41-22.7 453.51-20.68 451.61-18.65 451.21-14.8Z" opacity="1" transform="matrix(1,0,0,1,0,0)" fill="#000000" class="wordmark-text-0" data-fill-palette-color="primary" id="text-0"></path></svg></g></svg></g></svg></g></svg></g><g><svg viewBox="0 0 94.8193040323266 83.70143638826184" height="83.70143638826184" width="94.8193040323266"><g><svg xmlns="http://www.w3.org/2000/svg" xmlns:xlink="http://www.w3.org/1999/xlink" version="1.1" x="0" y="0" viewBox="4.80906343460083 9.006999969482422 91.27193450927734 80.57000732421875" enable-background="new 0 0 100 100" xml:space="preserve" height="83.70143638826184" width="94.8193040323266" class="icon-icon-0" data-fill-palette-color="accent" id="icon-0"><g fill="#d2d6dc" data-fill-palette-color="accent"><path d="M31.771 28.241A6.751 6.751 0 1 1 45.271 28.241 6.751 6.751 0 0 1 31.77 28.241M96.081 89.577L90.287 67.31S85.12 49.73 63.173 48.226L62.212 48.235V45.716A21 21 0 0 0 64.569 44.757C65.476 44.357 66.397 43.895 67.325 43.352L67.195 43.263C72.339 39.822 75.691 34.241 75.691 27.935 75.691 17.482 66.492 9.007 55.144 9.007 50.187 9.007 45.642 10.621 42.095 13.315 48.983 14.975 54.103 21.173 54.103 28.571 54.103 33.535 51.791 37.949 48.194 40.825A15.9 15.9 0 0 1 43.033 43.473C43.577 43.89 45.785 45.2 49.065 46.051V48.3L47.215 48.311C31.825 48.495 23.802 57.834 23.802 57.834L29.979 41.442C28.567 40.53 27.308 39.532 26.257 38.418L30.151 35.84C32.224 38.12 35.201 39.561 38.518 39.561 44.762 39.561 49.841 34.481 49.841 28.24 49.841 21.996 44.761 16.916 38.518 16.916S27.196 21.996 27.196 28.24C27.196 29.53 27.42 30.763 27.821 31.919L24.526 34.099C22.955 32.515 19.289 32.899 15.977 35.092 12.663 37.287 10.875 40.511 11.721 42.574L8.413 44.765 8.426 44.784A2.27 2.27 0 0 0 7.96 47.796 2.274 2.274 0 0 0 10.916 48.546L10.93 48.564 16.142 45.115 6.084 74.57C4.576 77.919 4.125 82.264 6.297 85.252 7.951 87.528 10.567 88.853 13.279 88.81 15.665 88.769 18.55 87.037 19.965 84.96L30.629 67.194 28.818 89.577H77.644L78.498 75.276 81.465 89.577z" fill="#d2d6dc" data-fill-palette-color="accent"></path></g></svg></g></svg></g></svg></g><defs></defs></svg>